<svg id="Layer_5" enable-background="new 0 0 64 64" height="512" viewBox="0 0 64 64" width="512" xmlns="http://www.w3.org/2000/svg"><g><path d="m60 39h-10v-3c0-1.654-1.346-3-3-3h-18.051c.026-.331.051-.662.051-1s-.025-.669-.051-1h9.051c1.654 0 3-1.346 3-3v-16c0-.552.449-1 1-1h3.067c.291 2.613 1.694 4.982 3.933 6.476v3.524c0 2.757 2.243 5 5 5s5-2.243 5-5v-3.525c2.481-1.663 4-4.476 4-7.475 0-2.556-1.093-5-2.998-6.706-1.904-1.705-4.465-2.521-7.025-2.237-3.948.438-7.256 3.595-7.865 7.507-.023.146-.021.29-.037.436h-3.075c-1.654 0-3 1.346-3 3v16c0 .552-.449 1-1 1h-9.363c-1.36-5.724-6.503-10-12.637-10-7.168 0-13 5.832-13 13s5.832 13 13 13c6.134 0 11.277-4.276 12.637-10h18.363c.551 0 1 .448 1 1v3h-10c-1.654 0-3 1.346-3 3v14c0 1.654 1.346 3 3 3h5v2h-2v2h16v-2h-2v-2h5c1.654 0 3-1.346 3-3v-14c0-1.654-1.346-3-3-3zm-6-15c-1.654 0-3-1.346-3-3v-3h6v3c0 1.654-1.346 3-3 3zm-1-14c0-.552.449-1 1-1s1 .448 1 1-.449 1-1 1-1-.448-1-1zm-5.912-1.129c.472-3.036 3.041-5.486 6.108-5.826.273-.03.544-.045.812-.045 1.729 0 3.359.619 4.66 1.783 1.482 1.327 2.332 3.229 2.332 5.217 0 2.451-1.31 4.738-3.419 6h-2.581v-3.184c1.161-.414 2-1.514 2-2.816 0-1.654-1.346-3-3-3s-3 1.346-3 3c0 1.302.839 2.402 2 2.816v3.184h-2.58c-2.47-1.476-3.779-4.26-3.332-7.129zm-31.088 34.129c-1.075 0-2.22-1.527-3.009-4h6.018c-.789 2.473-1.934 4-3.009 4zm-3.519-6c-.244-1.209-.408-2.553-.46-4h7.958c-.052 1.447-.217 2.791-.46 4zm-7.43-4h4.971c.046 1.419.184 2.763.409 4h-4.217c-.626-1.221-1.034-2.57-1.163-4zm10.949-12c1.075 0 2.22 1.527 3.009 4h-6.018c.789-2.473 1.934-4 3.009-4zm3.519 6c.244 1.209.408 2.553.46 4h-7.958c.052-1.447.217-2.791.46-4zm7.43 4h-4.971c-.046-1.419-.184-2.763-.409-4h4.217c.626 1.221 1.034 2.57 1.163 4zm-16.927 0h-4.971c.13-1.43.537-2.779 1.164-4h4.217c-.226 1.237-.365 2.581-.41 4zm11.956 2h4.971c-.13 1.43-.537 2.779-1.164 4h-4.217c.226-1.237.365-2.581.41-4zm2.501-8h-3.374c-.368-1.295-.838-2.422-1.391-3.341 1.874.675 3.518 1.834 4.765 3.341zm-12.193-3.341c-.553.919-1.023 2.046-1.391 3.341h-3.374c1.247-1.507 2.891-2.666 4.765-3.341zm-4.765 17.341h3.374c.368 1.295.838 2.422 1.391 3.341-1.874-.675-3.518-1.834-4.765-3.341zm12.193 3.341c.553-.919 1.023-2.046 1.391-3.341h3.374c-1.247 1.507-2.891 2.666-4.765 3.341zm18.286-1.341h22c.551 0 1 .448 1 1v11h-24v-11c0-.552.449-1 1-1zm15 20h-8v-2h8zm7-4h-22c-.551 0-1-.448-1-1v-1h24v1c0 .552-.449 1-1 1z"/><path d="m3.979 19.979 1.414 1.414c2.834-2.832 6.6-4.393 10.607-4.393s7.773 1.561 10.606 4.394l1.414-1.414c-3.21-3.211-7.479-4.98-12.02-4.98s-8.81 1.769-12.021 4.979z"/><path d="m28.021 44.021-1.414-1.414c-2.834 2.832-6.6 4.393-10.607 4.393s-7.773-1.561-10.606-4.394l-1.414 1.414c3.21 3.211 7.479 4.98 12.02 4.98s8.81-1.769 12.021-4.979z"/><path d="m29.435 18.564 1.414-1.414c-8.188-8.188-21.511-8.188-29.698 0l1.414 1.414c7.408-7.406 19.462-7.406 26.87 0z"/><path d="m2.565 45.436-1.414 1.414c4.094 4.093 9.472 6.14 14.849 6.14s10.755-2.047 14.849-6.141l-1.414-1.414c-7.408 7.407-19.462 7.407-26.87.001z"/></g></svg>