<svg id="Capa_1" enable-background="new 0 0 512 512" height="512" viewBox="0 0 512 512" width="512" xmlns="http://www.w3.org/2000/svg"><g><path d="m256.006 235.5c23.71 0 43-19.29 43-43s-19.29-43-43-43-43 19.29-43 43 19.289 43 43 43zm0-71c15.439 0 28 12.561 28 28s-12.561 28-28 28-28-12.561-28-28 12.56-28 28-28z"/><path d="m256.356 245.5h-.7c-12.62 0-24.852 3.639-35.373 10.521-3.466 2.269-4.438 6.916-2.169 10.383 2.268 3.466 6.917 4.438 10.382 2.17 8.073-5.282 17.464-8.074 27.16-8.074h.7c27.391 0 49.676 22.284 49.676 49.676v15.033c0 7.329-5.962 13.291-13.292 13.291h-73.469c-7.329 0-13.292-5.962-13.292-13.291v-15.033c0-6.387 1.193-12.602 3.546-18.473 1.541-3.845-.326-8.211-4.171-9.752-3.846-1.54-8.211.326-9.752 4.172-3.068 7.652-4.623 15.745-4.623 24.053v15.033c0 15.6 12.691 28.291 28.292 28.291h73.469c15.6 0 28.292-12.691 28.292-28.291v-15.033c-.001-35.662-29.014-64.676-64.676-64.676z"/><path d="m256.006 75c19.304 0 35.716-15.051 37.362-34.264.354-4.127-2.706-7.76-6.833-8.113-4.13-.357-7.759 2.706-8.113 6.832-.987 11.521-10.833 20.545-22.416 20.545-12.407 0-22.5-10.094-22.5-22.5s10.093-22.5 22.5-22.5c2.949 0 5.811.559 8.505 1.661 3.835 1.571 8.213-.268 9.781-4.102s-.268-8.213-4.102-9.781c-4.506-1.843-9.278-2.778-14.184-2.778-20.678 0-37.5 16.822-37.5 37.5s16.822 37.5 37.5 37.5z"/><path d="m248.006 97.5v25c0 4.143 3.358 7.5 7.5 7.5s7.5-3.357 7.5-7.5v-25c0-4.143-3.358-7.5-7.5-7.5s-7.5 3.357-7.5 7.5z"/><path d="m350.505 201.002c.799 0 1.613-.129 2.413-.4l53-18c3.922-1.332 6.021-5.592 4.689-9.514-1.332-3.921-5.591-6.023-9.514-4.689l-53 18c-3.922 1.332-6.021 5.592-4.689 9.514 1.061 3.121 3.977 5.089 7.101 5.089z"/><path d="m406.234 339.785-53-18c-3.924-1.332-8.182.768-9.514 4.689-1.332 3.922.768 8.182 4.689 9.514l53 18c3.817 1.328 8.189-.731 9.514-4.689 1.333-3.922-.767-8.182-4.689-9.514z"/><path d="m163.918 186.398-53-18c-3.925-1.331-8.182.768-9.514 4.689s.768 8.182 4.689 9.514l53 18c.8.271 1.613.4 2.413.4 3.124 0 6.041-1.968 7.101-5.09 1.332-3.921-.767-8.181-4.689-9.513z"/><path d="m67.084 333.046c-9.079-4.234-19.262-4.678-28.674-1.252-19.43 7.072-29.484 28.634-22.413 48.064 1.417 3.893 5.722 5.897 9.613 4.482 3.893-1.417 5.899-5.721 4.483-9.613-4.243-11.658 1.79-24.595 13.448-28.838 5.647-2.056 11.757-1.789 17.204.751 11.067 4.884 16.22 19.046 10.883 29.9-3.481 7.667-11.418 12.821-19.816 12.992-4.141.105-7.412 3.549-7.305 7.689.104 4.075 3.441 7.308 7.494 7.308 14.077-.2 27.387-8.811 33.222-21.649 8.895-18.091.305-41.694-18.139-49.834z"/><path d="m158.777 321.785-53 18c-3.922 1.332-6.021 5.592-4.689 9.514 1.061 3.122 3.977 5.09 7.101 5.09.799 0 1.613-.129 2.413-.4l53-18c3.922-1.332 6.021-5.592 4.689-9.514-1.332-3.921-5.591-6.024-9.514-4.69z"/><path d="m256.006 437c-20.678 0-37.5 16.822-37.5 37.5s16.822 37.5 37.5 37.5 37.5-16.822 37.5-37.5-16.823-37.5-37.5-37.5zm0 60c-12.407 0-22.5-10.094-22.5-22.5s10.093-22.5 22.5-22.5 22.5 10.094 22.5 22.5-10.094 22.5-22.5 22.5z"/><path d="m460.767 329.533c-20.678 0-37.5 16.822-37.5 37.5s16.822 37.5 37.5 37.5 37.5-16.822 37.5-37.5-16.823-37.5-37.5-37.5zm0 60c-12.407 0-22.5-10.094-22.5-22.5s10.093-22.5 22.5-22.5 22.5 10.094 22.5 22.5-10.094 22.5-22.5 22.5z"/><path d="m263.006 414.5v-25c0-4.143-3.358-7.5-7.5-7.5s-7.5 3.357-7.5 7.5v25c0 4.143 3.358 7.5 7.5 7.5s7.5-3.357 7.5-7.5z"/><path d="m460.459 117.854c-20.678 0-37.5 16.822-37.5 37.5s16.822 37.5 37.5 37.5 37.5-16.822 37.5-37.5-16.822-37.5-37.5-37.5zm0 60c-12.407 0-22.5-10.094-22.5-22.5s10.093-22.5 22.5-22.5 22.5 10.094 22.5 22.5-10.093 22.5-22.5 22.5z"/><path d="m51.552 117.854c-20.678 0-37.5 16.822-37.5 37.5s16.822 37.5 37.5 37.5 37.5-16.822 37.5-37.5-16.823-37.5-37.5-37.5zm0 60c-12.407 0-22.5-10.094-22.5-22.5s10.093-22.5 22.5-22.5 22.5 10.094 22.5 22.5-10.094 22.5-22.5 22.5z"/></g></svg>