<svg id="Line_stroke_Ex" height="512" viewBox="0 0 512 512" width="512" xmlns="http://www.w3.org/2000/svg" data-name="Line stroke Ex"><g><path d="m493.657 194.343-32-32a8 8 0 0 0 -5.657-2.343h-32v-104a8 8 0 0 0 -8-8h-104v-24a8 8 0 0 0 -8-8h-40v16h32v56h-72v-56h24v-16h-96a8 8 0 0 0 -8 8v136h-48v-56a8 8 0 0 0 -2.343-5.657l-32-32a8 8 0 0 0 -11.314 0l-32 32a8 8 0 0 0 -2.343 5.657v152h16v-148.687l24-24 24 24v372.687h-48v-208h-16v216a8 8 0 0 0 8 8h64a8 8 0 0 0 8-8v-248h56v56h-14a18.021 18.021 0 0 0 -18 18v124a18.021 18.021 0 0 0 18 18h300a18.021 18.021 0 0 0 18-18v-54h-16v54a2 2 0 0 1 -2 2h-300a2 2 0 0 1 -2-2v-124a2 2 0 0 1 2-2h14v16h16v-16h240v16h16v-16h14a2 2 0 0 1 2 2v54h16v-54a18.021 18.021 0 0 0 -18-18h-14v-56h32a8 8 0 0 0 5.657-2.343l32-32a8 8 0 0 0 0-11.314zm-85.657-130.343v96h-96v-96zm-112 56h-136v-16h136zm-88-32h-16v-56h16zm-48-56h16v56h-16zm0 104h136v24h-136zm248 160h-240v-56h240zm44.686-72h-356.686v-48h356.686l24 24z"/><path d="m216 366v-12a18.021 18.021 0 0 0 -18-18h-12a18.021 18.021 0 0 0 -18 18v62h16v-26.667l16 21.334v5.333h16v-8a8 8 0 0 0 -1.6-4.8l-14.477-19.3a18.027 18.027 0 0 0 16.077-17.9zm-16 0a2 2 0 0 1 -2 2h-14v-14a2 2 0 0 1 2-2h12a2 2 0 0 1 2 2z"/><path d="m272 352v-16h-32a8 8 0 0 0 -8 8v64a8 8 0 0 0 8 8h32v-16h-24v-16h16v-16h-16v-16z"/><path d="m311.491 341.191a8 8 0 0 0 -7.491-5.191h-8a8 8 0 0 0 -8 8v72h16v-49.216l16.509 44.025a8 8 0 0 0 7.491 5.191h8a8 8 0 0 0 8-8v-72h-16v49.216z"/><path d="m392 416v-64h16v-16h-48v16h16v64z"/><path d="m152 192h16v16h-16z"/><path d="m408 192h16v16h-16z"/><path d="m48 160h16v16h-16z"/><path d="m48 224h16v16h-16z"/><path d="m336 80h16v24h-16z"/><path d="m336 120h16v24h-16z"/><path d="m368 80h16v24h-16z"/><path d="m368 120h16v24h-16z"/></g></svg>