<svg height="512" viewBox="0 0 64 64" width="512" xmlns="http://www.w3.org/2000/svg"><g id="file-graph-website-report-Digital_Marketing" data-name="file-graph-website-report-Digital Marketing"><path d="m22 28h-6v-6a1 1 0 0 0 -1-1 8 8 0 1 0 8 8 1 1 0 0 0 -1-1zm-7 7a6 6 0 0 1 -1-11.917v5.917a1 1 0 0 0 1 1h5.917a6.01 6.01 0 0 1 -5.917 5z"/><path d="m18 18a1 1 0 0 0 -1 1v7a1 1 0 0 0 1 1h7a1 1 0 0 0 1-1 8.009 8.009 0 0 0 -8-8zm1 7v-4.917a6.017 6.017 0 0 1 4.917 4.917z"/><path d="m7 40h15v2h-15z"/><path d="m7 44h15v2h-15z"/><path d="m7 48h2v2h-2z"/><path d="m11 48h11v2h-11z"/><path d="m60 30h-12v-8.44l6.66 2.38a.994.994 0 0 0 1.34-.94v-6h1a3 3 0 0 0 0-6h-1v-6a1.014 1.014 0 0 0 -.42-.82 1.035 1.035 0 0 0 -.92-.12l-6.66 2.38v-2.44a2.006 2.006 0 0 0 -2-2h-32a1.033 1.033 0 0 0 -.71.29l-11 11a1.033 1.033 0 0 0 -.29.71v43a1 1 0 0 0 1 1h22v3a1 1 0 0 0 1 1h34a1 1 0 0 0 1-1v-30a1 1 0 0 0 -1-1zm-4-17h1a1 1 0 0 1 0 2h-1zm-2-6.58v15.16l-12-4.28v-6.6zm-41-1.01v7.59h-7.59zm12 25.59v25h-21v-41h10a1 1 0 0 0 1-1v-10h31v3.15l-5.17 1.85h-7.83a1 1 0 0 0 -1 1v.22l-3.24.81a1 1 0 0 0 -.76.97v4a1 1 0 0 0 .76.97l3.24.81v.22a1 1 0 0 0 1 1h1v8a1 1 0 0 0 1 1h4a.989.989 0 0 0 .99-.89l.9-8.09 5.11 1.83v9.15h-20a1 1 0 0 0 -1 1zm9-14v-6h6v6zm4.88 2-.78 7h-2.1v-7zm-6.88-6.72v3.44l-2-.5v-2.44zm27 47.72h-32v-22h32zm0-24h-32v-4h32z"/><path d="m29 33h2v2h-2z"/><path d="m33 33h2v2h-2z"/><path d="m37 33h2v2h-2z"/><path d="m53 55v-13a1 1 0 0 0 -1-1h-4a1 1 0 0 0 -1 1v13h-1v-9a1 1 0 0 0 -1-1h-4a1 1 0 0 0 -1 1v9h-1v-6a1 1 0 0 0 -1-1h-4a1 1 0 0 0 -1 1v6h-2v2h24v-2zm-16 0h-2v-5h2zm7 0h-2v-8h2zm7 0h-2v-12h2z"/></g></svg>